<?xml version="1.0" encoding="UTF-8"?>
<svg xmlns="http://www.w3.org/2000/svg" viewBox="0 0 48 48" width="48" height="48">
  <rect x="2" y="2" width="44" height="44" rx="10" ry="10" fill="#2bffa3" stroke="#1fbf7a" stroke-width="2"/>
  <g transform="translate(24,24) scale(0.48) translate(-24,-24)">
    <polygon points="24,6 42,18 42,30 24,42 6,30 6,18" fill="#1ca8c9" stroke="#0a6b85" stroke-width="1"/>
    <polygon points="24,14 36,22 36,26 24,34 12,26 12,22" fill="#1ca8c9" stroke="#0e7a9e" stroke-width="0.75"/>
    <polygon points="24,20 30,24 30,26 24,30 18,26 18,24" fill="#1ca8c9" stroke="#0e7a9e" stroke-width="0.75"/>
    <circle cx="24" cy="25" r="3" fill="#1ca8c9" stroke="#0e7a9e" stroke-width="0.5"/>
    <polygon points="24,6 42,18 42,30 24,42 6,30 6,18" fill="none" stroke="#3a3a3a" stroke-width="2.5"/>
  </g>
  <text x="24" y="40" font-family="Rajdhani, sans-serif" font-size="9.6" font-weight="700" fill="#ffffff" stroke="#000000" stroke-width="1.1" paint-order="stroke fill" text-anchor="middle">Ziggurat</text>
</svg>
