<?xml version="1.0" encoding="UTF-8"?>
<svg xmlns="http://www.w3.org/2000/svg" viewBox="0 0 48 48" width="48" height="48">
  <rect x="2" y="2" width="44" height="44" rx="10" ry="10" fill="#aaff88" stroke="#6b9e4a" stroke-width="2"/>
  <path d="M24 10 L36 17 L36 31 L24 38 L12 31 L12 17 Z" fill="#313131" stroke="#313131" stroke-width="1.25" stroke-linejoin="round"/>
  <rect x="22.35" y="11.19" width="3.3" height="3.3" fill="#9e9e9e" stroke="#4a4a4a" stroke-width="1" transform="rotate(-90, 24, 12.84)"/>
  <rect x="32.02" y="16.77" width="3.3" height="3.3" fill="#9e9e9e" stroke="#4a4a4a" stroke-width="1" transform="rotate(-30, 33.67, 18.42)"/>
  <rect x="32.02" y="27.93" width="3.3" height="3.3" fill="#9e9e9e" stroke="#4a4a4a" stroke-width="1" transform="rotate(30, 33.67, 29.58)"/>
  <rect x="22.35" y="33.51" width="3.3" height="3.3" fill="#9e9e9e" stroke="#4a4a4a" stroke-width="1" transform="rotate(90, 24, 35.16)"/>
  <rect x="12.69" y="27.93" width="3.3" height="3.3" fill="#9e9e9e" stroke="#4a4a4a" stroke-width="1" transform="rotate(150, 14.34, 29.58)"/>
  <rect x="12.69" y="16.77" width="3.3" height="3.3" fill="#9e9e9e" stroke="#4a4a4a" stroke-width="1" transform="rotate(210, 14.34, 18.42)"/>
  <circle cx="24" cy="24" r="9.66" fill="#1ca8c9" stroke="#0a6b85" stroke-width="1"/>
  <text x="24" y="40" font-family="Rajdhani, sans-serif" font-size="12" font-weight="700" fill="#ffffff" stroke="#000000" stroke-width="1.1" paint-order="stroke fill" text-anchor="middle">Hive</text>
</svg>
