<?xml version="1.0" encoding="UTF-8"?>
<svg xmlns="http://www.w3.org/2000/svg" viewBox="0 0 48 48" width="48" height="48">
  <rect x="2" y="2" width="44" height="44" rx="10" ry="10" fill="#3c78d8" stroke="#2a56a8" stroke-width="2"/>
  <g transform="translate(27.6, 27.6) rotate(-45) scale(0.9375) translate(-32, -32)">
    <path d="M 27.74 22.66 L 23.62 22.66 Q 21.75 15 26.94 7.2 Q 27.74 6.66 27.74 8 Q 25.44 14.66 27.74 22.66 Z" fill="#333333"/>
    <path d="M 36.26 22.66 L 40.38 22.66 Q 42.25 15 37.06 7.2 Q 36.26 6.66 36.26 8 Q 38.56 14.66 36.26 22.66 Z" fill="#333333"/>
    <g transform="rotate(90 32 32)">
      <rect x="19.25" y="22.25" width="25.5" height="19.5" rx="9.5625" ry="7.3125" fill="#8f5db0" stroke="#764b90" stroke-width="1.8"/>
      <path d="M 24.41 32 Q 28 30 39.59 32" fill="none" stroke="#764b90" stroke-width="2.07" stroke-linecap="round"/>
      <circle cx="32" cy="37.4" r="1.4" fill="#764b90"/>
      <circle cx="26.42" cy="36.59" r="1.4" fill="#764b90"/>
      <circle cx="37.58" cy="36.59" r="1.4" fill="#764b90"/>
      <circle cx="32" cy="26.6" r="1.4" fill="#764b90"/>
      <circle cx="26.42" cy="27.41" r="1.4" fill="#764b90"/>
      <circle cx="37.58" cy="27.41" r="1.4" fill="#764b90"/>
    </g>
  </g>
</svg>
